<svg xmlns="http://www.w3.org/2000/svg" width="101.031" height="51.344" viewBox="0 0 101.031 51.344">
<path id="Path_92" data-name="Path 92" d="M13.531-25.406H1.688v-2.781A19.617,19.617,0,0,1,2.8-35.609,10.3,10.3,0,0,1,7.25-40.219a16.759,16.759,0,0,1,8.688-2q6.406,0,9.656,2.266A8.829,8.829,0,0,1,29.5-34.391q.656,3.3.656,13.578V0H17.875V-3.7A8.2,8.2,0,0,1,14.891-.361,8.232,8.232,0,0,1,10.531.75,10.665,10.665,0,0,1,4.453-1.109Q1.688-2.969,1.688-9.25v-3.406q0-4.656,1.469-6.344t7.281-3.937q6.219-2.437,6.656-3.281a8.72,8.72,0,0,0,.438-3.437,11.584,11.584,0,0,0-.484-4.234,1.662,1.662,0,0,0-1.609-.984q-1.281,0-1.594.828a16.824,16.824,0,0,0-.312,4.3Zm4,5.688Q14.5-17.5,14.016-16a14.768,14.768,0,0,0-.484,4.313,12.563,12.563,0,0,0,.422,4.156,1.649,1.649,0,0,0,1.672.938,1.547,1.547,0,0,0,1.547-.734,11.862,11.862,0,0,0,.359-3.859ZM47.5-50.594V-44h-13v-6.594Zm0,9.125V0h-13V-41.469Zm33.438,0V0H68.094l.219-3.445A8.79,8.79,0,0,1,65.078-.3,9.082,9.082,0,0,1,60.656.75a9.957,9.957,0,0,1-4.719-1,6.5,6.5,0,0,1-2.766-2.656,9.719,9.719,0,0,1-1.109-3.453q-.219-1.8-.219-7.141V-41.469H64.469V-13.25a29.423,29.423,0,0,0,.3,5.75q.3.906,1.609.906,1.406,0,1.672-.937a35.945,35.945,0,0,0,.266-6.031V-41.469ZM98.781-47v6.531h3.406v6.563H98.781v22.188q0,4.094.422,4.563t3.516.469V0H97.625a36.412,36.412,0,0,1-6.156-.359,6.564,6.564,0,0,1-3.25-1.656,5.5,5.5,0,0,1-1.75-2.969,52.632,52.632,0,0,1-.344-7.859V-33.906H83.406v-6.562h2.719V-47Z" transform="translate(-1.688 50.594)" fill="#0095da"></path>
</svg>